<svg xmlns="http://www.w3.org/2000/svg" version="1.2" viewBox="0 0 752 974"><path fill-rule="evenodd" d="M712.2 501.8c50 29.9 52.9 99.9 3.7 132.7 28 39.5 39 91.1 32.4 138.9-3.3 24.1-11.5 48.5-25.9 68.3-4.1 5.6-11.8 19.1-20.5 16.3-10.2-3.4-10.9-22.1-18.1-28.6-4.9 9.2-5.6 21.9-8.8 32-3.5 10.7-7.6 21.2-12.3 31.5-9.5 20.9-21.3 40.9-34.4 59.8-3.2 4.6-6.4 10.5-12.6 10.3-7.3-.3-16.3-7.4-22.4-10.9-20.1-11.6-38.9-25.3-55.1-42.1-4.9 16.9-3.4 34.6-9.9 51.2-5.2 13.5-11.4 15.8-23.8 8.5-13.4-7.9-26.2-17.1-37.8-27.5q-2.1-1.9-4.3-3.9-2.1-2-4.1-4.1-2.1-2.1-4.1-4.2-2-2.1-3.9-4.3c-4-4.5-9.6-15.9-15.1-18.1-17.8 26-42.6 48.5-70.4 63.3-13.2 7.1-18.7.7-23-12.4-5.2-16-3.6-33.4-8.7-49.1-14.9 16.2-32.9 29-51.9 40.1-7.3 4.3-17.1 12-25.7 13.3-7.7 1.1-11.3-6.1-15-11.8-12.1-18.4-23.1-37.6-32.1-57.7-4.6-10.3-8.7-20.8-12.1-31.5q-.6-2.2-1.3-4.3l-1.2-4.4q-.6-2.1-1.2-4.3-.6-2.2-1.1-4.4c-1.2-4.8-1-12-4-16-5.6 7.5-8.3 24.5-16.9 28.9-8.6 4.3-17.4-10.6-21.4-16.2-14-19.3-22.4-41.8-25.9-65.3-7.3-49.1 2.6-100.4 32.1-140.9-49.5-34.7-46.5-103.3 4.5-132.4-17.3-25.8-15.5-60.6-9.3-89.8-43.5 50.9-129.5 36.5-147.2-30.6-7.3-27.9.5-58.9 20.7-79.6 19.9-20.4 49.1-27.3 76.8-23.9 26-58.7 53.8-116.4 91-169 18.6-26.2 39.1-51 62.2-73.5 10.6-10.2 21.8-22.7 34.8-29.9 13-7.2 27.9-6.4 42.2-5.4C440.8 8.2 547.6 70.6 613.3 158c38 50.4 65 111 73.5 173.7 22.9 17.3 28.7 48.8 33.4 75.3 5.3 30.3 8.6 67.5-8 94.8zM233 488.6c0 22.1.4 44.3-.1 66.4-.8 28.1-11.1 52.3-32.2 71.5-49.1 44.7-60.6 100.1-46.1 162.7 1.8 7.8 4.2 15.6 9.1 23 10.8-17.3 23.2-32.1 37.9-44.4 5.2-4.4 12.8 0 12 6.6v.8c-4.1 57.5 16.9 107.2 46.3 154.3 3.1.3 4.6-1.4 6.5-2.5 27.1-16 50.2-36.4 68.3-62.4 5-7.1 8-6.9 12.1.6 7.9 14.3 13.9 29.3 16 45.7 1.2 8.9 2.3 17.9 3.5 27.1 28.8-20.4 51.1-45 61.3-78.9.4-1.6 1.3-3.2 1.9-4.7 1.1-2.8 3.2-4.5 6.1-4.4 2.6.1 4.4 2 5.4 4.3.8 1.7 1.4 3.6 2 5.4 11.5 33.3 33.7 57.8 62.4 77.9 1.8-4.8 1.3-9.1 1.7-13.4 1.9-21 7.1-41 17.8-59.4 3.9-6.7 6.7-7 11.2-.8 6.6 9 13.6 17.7 21.4 25.7 15.4 15.9 33.1 28.9 52.7 40 32.5-49.6 53.5-101.8 47.1-161.1-.2-2.4 1.2-4.9 3.5-5.7 2.9-.8 5.2 1.2 7.5 3.1 14.2 12 26.3 25.9 36.7 41.3.9 1.4 1.1 3.8 3.9 3.8.8-1.8 1.6-3.5 2.3-5.3 21.7-55 14.4-133.5-42.5-181.5-14.9-12.7-23.7-29.2-27.8-48.4-2.6-11.9-3.2-24-3.3-36.2-.1-17.4 0-34.9 0-51.9-109.8-76-288.3-80.1-404.6.8zm452.2 2.7c6.2-7.6 9.1-15.6 9.9-24.1 3.3-34-1.9-66.8-14.1-98.5-2.6-6.7-6.9-11.4-13-15.2-64.2-39.9-134.3-60.6-209.6-64.2-80.2-3.8-155.3 14.1-225.8 52.8-25.1 13.8-40.9 33.5-49.2 60.1-2 6.2-4 12.5-5.3 18.9-4 19.1-6.3 38.4.4 57.4 2.4 6.9 6.1 12.9 13.1 16.8 4.9-12.3 13.4-20.8 23.5-27.9 12.7-8.9 25.8-17.2 39.8-24 75.9-37.3 155.8-49.1 239.3-37.6 62.6 8.6 120.2 30 171.5 67.2 7 5.1 14.4 9.9 19.5 18.3zM84 418c27.2.2 50.8-19.8 55.5-46.5 9.3-52.3-53.9-88.7-93.9-53.2C6.8 352.5 33.2 417.7 84 418zm83.9-50.3c8.1-15.3 17.6-27.4 29.8-36.6 4.6-54.9 21.8-105.3 46.6-153.4-42.4 33.3-78.1 72.7-111.7 114.3 27.6 28.1 31.4 36.2 35.3 75.7zM665.6 555c11.7-6 29.8-3.4 31.1 12.7 1 13-10.5 19.8-22 19.6 5.4 13.2 16.7 19.7 26 28.6 17.2-11.7 28.2-29.2 26.5-50.5-1.7-19.9-13.4-35.5-31.1-44.1-9.5 5.3-19.3 8.3-30.5 7.2zm-460.2-26.1c-8.2-.9-15.7-1.7-22.4-5.4-3.8-2.1-7.1-1.5-10.8.3-19.9 9.5-32.1 32.9-27.7 54.4 3.2 16.2 11.4 29 26.6 37.3 9.2-8.8 19.7-15.5 25.1-27.4-15-1.6-23.2-10.3-21.1-21.6 2.3-12.8 13-17.3 30.3-12.3v-25.3zm46.9-281.4c25.3-45.1 55.9-85.8 94-120.9-13.9 3.4-28 8.1-40.9 14.4-10.6 5.2-17 18.6-22.8 28.5-14 24.1-25 50.6-30.3 78z"/><path fill-rule="evenodd" d="M436.1 663.2c-17.6 24.2-43.3 39-71.5 47.8-32.7 10.1-69.5 17.4-103.6 11.3-14.5-2.7-28-8.3-39-18.4-6.2-5.7-23.4-22.6-17.5-32.1 3.4-5.4 12.5-5.5 18.1-6.4 8.9-1.5 18.1-2.4 26.9-4.4 15.9-3.7 27.5-13.2 38.3-24.9 12.5-13.5 24.6-27.2 40.2-37.2 15.5-9.8 32.1-14.4 49.6-19.3-5.5-37.5 20.9-72.6 60.7-70.6 35.4 1.9 60.6 35.3 54.6 70 32.4 8 58.9 21.9 81.6 46.8 11.3 12.4 21.9 25.5 37.7 32.2 14.5 6.1 29.5 5.4 44.5 8.5 30.4 6.4-12.6 43.8-24.4 49.7-28.2 13.9-67.1 8.6-96.6 2.2-37.5-8-76.2-23.6-99.6-55.2zm-44.4-58c-30.8 3.8-54.9 18-75.7 40.4-9.5 10.2-18.2 20.7-29.7 28.7-11.1 7.6-23.6 9.5-35.1 15.5 14.6 9.6 35.5 7.6 52.1 6.1 17.7-1.6 35.1-5.4 51.9-10.9 30.1-9.8 62.1-27.5 67.9-61.8-12.5-3.2-22.9-9.1-31.4-18zm55.5 18.3c10.2 33.3 37.7 49.8 69 60.7 17.2 6.1 35.1 9.9 53.2 11.5 16.1 1.4 38.8 4.4 52.4-6.4-31.1-5.9-49.6-25.1-70.2-47.3-19.6-21-43.9-33.6-72.4-37.4-8.7 9-19.2 15.2-32 18.9zm18.9-57.5c.2-38.4-61.7-39.4-62.2-1-.2 16.3 13.8 31.1 30 31.8 16.8.7 32.1-14.1 32.2-30.8zm-79-91.2c.3 8.3-7.8 15-15.6 11.9-26.9-10.8-53-8-79 2.8-5.4 2.2-10.7 2.5-14-3.4-3.1-5.5-.9-10.1 3.6-14.1 23.3-20.3 67.8-25.3 95.3-10.6 5.5 2.9 9.1 7 9.7 13.4zm148.7-21.9c11.1.2 22.2 2.9 32.4 7.2 7.4 3.1 22.8 9.4 24.8 18.5 2.8 12.4-10 12.6-17.8 9.8-12.1-4.3-23.8-7.6-36.8-8.3-12.2-.7-23.5 1-34.9 5.1-8.7 3.2-19 3.1-20.3-8.7-2.3-21.7 39.1-23.6 52.6-23.6z"/><path d="M326.4 501.3c9.3-3.6 19.7-3.4 28.9.7 11 4.9 21.6 14.1 20.7 25.1-.8 10.2-10.5 12.7-17.4 6.8-6.7-5.8-11.8-13.1-21.8-11.4-9 1.5-11.9 9.5-18.7 14.2-7.5 5.1-15.4-.6-15.5-9.1-.1-12.3 11.6-21.7 23.8-26.3zm189.9.3q3.5-1.4 7.2-2.1 3.6-.7 7.4-.6 3.7 0 7.4.8 3.6.8 7.1 2.2c11.7 5 23.3 14.3 22.4 26.2-.7 10-11 12.7-17.7 6.6-6.2-5.7-10.4-12.1-19.7-12.2-9.7-.1-13.4 7-20.3 12.3-6.7 5.1-14.8 2.5-16-6.4-1.6-12.6 10.1-22 22.2-26.8z"/></svg>
